# xmcd CD database file
# Copyright (C) 1993-1998 Ti Kan
# 
# Track frame offsets:
#     150
#     20910
#     66715
#     101030
#     132190
#     163350
# 
# Disc length: 2447 seconds
# 
# Revision: 1
# Processed by: cddbd v1.4b41PL1 Copyright (c) Steve Scherf et al.
# Submitted via: DiscPlay 4.0.4
# 
DISCID=5d098d06
DTITLE=Michael Jackson - You are not alone (single)
DYEAR=1900
DGENRE=
TTITLE0=You are not alone (radio edit)
TTITLE1=You are not alone  (Franctified club mix)
TTITLE2=You are not alone Classic song version)
TTITLE3=You are not alone Jon B. main mix)
TTITLE4=You are not alone  (Jon B. Padapella mix)
TTITLE5=Magic Michael Jackson Mix
EXTD=
EXTT0=
EXTT1=
EXTT2=
EXTT3=
EXTT4=
EXTT5=
PLAYORDER=
